<svg xmlns="http://www.w3.org/2000/svg" viewBox="0 0 80 80"><g stroke="#33291c" stroke-width="1.7" stroke-linejoin="round"><path d="M40 57C15 59 7 39 6 28C24 29 36 40 40 57M40 57C65 59 73 39 74 28C56 29 44 40 40 57" fill="#a52620"/><path d="M40 57C21 45 20 24 25 15C38 24 44 38 40 57M40 57C59 45 60 24 55 15C42 24 36 38 40 57" fill="#cf5140"/><path d="M40 57C25 43 28 21 40 6C52 21 55 43 40 57Z" fill="#f1b834"/><path d="M40 12V53M40 53L33 29M40 53L47 29M11 33L34 52M69 33L46 52" fill="none"/><path d="M12 59Q40 75 68 59Q56 57 40 62Q24 57 12 59Z" fill="#235142"/><path d="M40 66V77" fill="none" stroke="#235142" stroke-width="3"/></g></svg>